<svg width="40" height="40" viewBox="0 0 40 40" fill="none" xmlns="http://www.w3.org/2000/svg">
    <path d="M39.9965 23.8063C39.723 24.3533 39.319 24.6575 38.6696 24.6867C38.1821 24.7085 37.8198 25.0315 37.7133 25.5244C37.6517 25.8067 37.5223 25.838 37.2738 25.838C32.46 25.8307 27.6452 25.8328 22.8314 25.8328C20.828 25.8328 18.8236 25.8307 16.8202 25.8359C16.6093 25.8369 16.4914 25.8192 16.4339 25.5577C16.3149 25.0128 15.9046 24.7085 15.3472 24.6648C14.5913 24.6054 14.0986 24.0949 14.1435 23.4176C14.1873 22.7445 14.7458 22.2944 15.5006 22.3299C16.0811 22.357 16.6146 22.5528 17.1512 22.8425C17.2409 22.3653 17.3067 21.91 17.4153 21.464C17.7869 19.9356 19.1462 18.8301 20.7226 18.8238C24.9507 18.8092 29.1799 18.8082 33.408 18.8238C35.1024 18.8301 36.5065 20.0752 36.7936 21.7589C36.8521 22.1038 36.9105 22.4486 36.9742 22.8258C37.3761 22.6716 37.7467 22.4664 38.1675 22.3913C39.1582 22.2163 39.5111 22.3601 39.9976 23.1821C39.9965 23.3905 39.9965 23.5989 39.9965 23.8063Z" fill="white"/>
    <path d="M16.1718 39.947C15.3345 39.5937 15.2615 38.8915 15.3074 38.1142C15.3377 37.6099 15.3126 37.6089 15.8221 37.6089C17.8787 37.6089 19.9343 37.6152 21.9899 37.6016C22.2801 37.5995 22.3918 37.6652 22.3469 37.96C22.325 38.0996 22.3302 38.2466 22.3459 38.3883C22.4232 39.1113 22.1538 39.6385 21.4846 39.948C19.713 39.947 17.9424 39.947 16.1718 39.947Z" fill="white"/>
    <path d="M32.6562 39.947C31.8189 39.5937 31.7458 38.8915 31.7918 38.1142C31.822 37.6099 31.797 37.6089 32.3065 37.6089C34.3631 37.6089 36.4187 37.6152 38.4743 37.6016C38.7645 37.5995 38.8762 37.6652 38.8313 37.96C38.8094 38.0996 38.8146 38.2466 38.8303 38.3883C38.9075 39.1113 38.6382 39.6385 37.969 39.948C36.1974 39.947 34.4268 39.947 32.6562 39.947Z" fill="white"/>
    <path d="M26.5183 11.8007C24.8657 11.8007 23.212 11.8059 21.5594 11.7945C21.2922 11.7924 21.1032 11.8622 20.9122 12.055C19.6239 13.3584 18.3043 14.6326 17.0317 15.9517C16.399 16.6081 15.663 16.5643 14.9051 16.3841C14.4301 16.2716 14.1514 15.8017 14.1482 15.2755C14.142 14.2492 14.1336 13.2229 14.1545 12.1977C14.1608 11.8862 14.1012 11.7893 13.763 11.7903C10.8085 11.8059 7.85409 11.7997 4.89963 11.7997C2.036 11.7997 0.0106834 9.78359 0.00859548 6.9298C0.00755151 5.87747 0.00755151 4.82618 0.00859548 3.77385C0.00963946 3.08619 0.313437 2.59753 0.904328 2.49126C1.71237 2.34643 2.3304 2.41832 2.69266 3.13203C3.30756 4.34586 3.92351 5.55864 4.51858 6.78185C4.64281 7.03711 4.77853 7.13089 5.0698 7.12984C12.7744 7.12047 20.4789 7.12047 28.1845 7.12359C30.2077 7.12463 31.923 8.26657 32.6433 10.0753C33.015 11.0068 32.4836 11.7966 31.4772 11.7986C29.8246 11.8028 28.1709 11.8007 26.5183 11.8007Z" fill="white"/>
    <path d="M27.0697 35.2688C23.2832 35.2688 19.4967 35.2647 15.7113 35.2761C15.3981 35.2772 15.2968 35.2199 15.3052 34.8844C15.3313 33.8466 15.3104 32.8068 15.3156 31.768C15.326 29.7009 16.8419 28.1786 18.9131 28.1766C24.3523 28.1703 29.7903 28.1703 35.2295 28.1766C37.3018 28.1786 38.8145 29.6988 38.826 31.7691C38.8322 32.8204 38.8124 33.8727 38.8354 34.924C38.8416 35.2303 38.7445 35.2751 38.4679 35.2741C34.6689 35.2657 30.8688 35.2688 27.0697 35.2688Z" fill="white"/>
    <path d="M8.87336 32.8392C7.50784 32.9235 6.22374 32.6599 5.07954 31.9014C3.32149 30.7355 2.36938 29.0976 2.35372 26.9753C2.33284 24.1819 2.3485 21.3886 2.3485 18.5952C2.3485 18.4702 2.3485 18.3451 2.3485 18.1534C2.18981 18.3003 2.08437 18.4056 1.97162 18.5025C1.47469 18.9296 0.790884 18.9151 0.348238 18.4712C-0.0954526 18.0273 -0.127816 17.323 0.324226 16.8542C1.1093 16.0394 1.91107 15.2402 2.72642 14.4567C3.18577 14.0149 3.85078 14.0139 4.31431 14.4567C5.13174 15.2392 5.93352 16.0383 6.7165 16.8542C7.17063 17.3272 7.13618 18.0273 6.69353 18.4702C6.24984 18.914 5.56395 18.9307 5.07119 18.5004C4.96471 18.4066 4.88119 18.2868 4.77679 18.167C4.64107 18.3045 4.6964 18.4379 4.6964 18.5535C4.69223 21.2948 4.69223 24.036 4.69327 26.7773C4.69432 28.9622 6.23105 30.499 8.42027 30.5074C8.57269 30.5084 8.72616 30.5074 8.95166 30.5074C8.80759 30.3542 8.70423 30.25 8.60714 30.1396C8.17598 29.6478 8.18433 28.9664 8.62385 28.5183C9.07276 28.0609 9.78788 28.0359 10.2733 28.5038C11.0782 29.28 11.8717 30.0698 12.6473 30.8752C13.1036 31.3492 13.0973 32.014 12.6369 32.4901C11.8591 33.2934 11.0678 34.0842 10.2608 34.8584C9.78788 35.3126 9.08946 35.2876 8.63951 34.85C8.18016 34.4031 8.16867 33.7008 8.61967 33.2017C8.71154 33.0996 8.82638 33.0184 8.93182 32.9277C8.91094 32.8996 8.89215 32.8694 8.87336 32.8392Z" fill="white"/>
    <path d="M21.1791 4.78695C18.849 4.78695 16.6128 4.78486 14.3766 4.79111C14.1855 4.79215 14.1396 4.73381 14.1406 4.55043C14.149 3.421 14.1396 2.29157 14.149 1.16214C14.1521 0.775589 14.3369 0.466141 14.6543 0.244214C15.1773 -0.121497 16.3695 -0.0746108 16.8164 0.372369C18.2581 1.81125 19.6821 3.26888 21.1791 4.78695Z" fill="white"/>
    <path d="M30.9516 16.47C28.3406 16.47 25.7807 16.47 23.1875 16.47C23.3222 15.9521 23.436 15.4478 23.5873 14.955C23.7408 14.4559 24.1427 14.1527 24.6616 14.1486C26.262 14.1382 27.8614 14.1382 29.4618 14.1475C30.013 14.1507 30.4181 14.4695 30.5768 15.0102C30.7146 15.4812 30.8221 15.9605 30.9516 16.47Z" fill="white"/>
</svg>