<svg width="40" height="40" viewBox="0 0 40 40" fill="none" xmlns="http://www.w3.org/2000/svg">
    <path d="M0 7.03094C0.228214 6.8514 0.499153 6.91194 0.753419 6.91194C8.76905 6.90881 16.7857 6.90985 24.8014 6.90985C24.9316 6.90985 25.0619 6.91089 25.1921 6.90985C25.7153 6.90463 25.7236 6.8848 25.7403 6.35453C25.7642 5.61653 25.7121 4.89524 25.3276 4.24075C24.6419 3.07478 23.604 2.50171 22.2681 2.47144C21.3573 2.45056 20.4465 2.46726 19.5358 2.46726C14.2785 2.46726 9.02123 2.46517 3.76397 2.46831C2.51765 2.46935 1.47453 2.89732 0.737788 3.94534C0.518953 4.25745 0.381399 4.60714 0.25635 4.96517C0.207373 5.10087 0.206331 5.28668 0 5.31277" fill="white"/>
    <path d="M33.3607 0C33.3294 0.22025 33.1335 0.180585 33.0012 0.207724C31.2849 0.568893 29.9771 1.50209 29.1017 3.01566C28.4066 4.21816 28.1878 5.52296 28.4327 6.8904C28.6859 8.29958 29.2476 9.59916 29.9062 10.8633C30.7086 12.4019 31.636 13.8601 32.6479 15.2672C33.0501 15.8267 33.4763 16.3695 33.8973 16.9165C34.0328 17.0919 34.1485 17.1597 34.3194 16.9405C36.3483 14.3476 38.1865 11.6409 39.3609 8.53862C39.5495 8.04071 39.6944 7.5261 39.7934 6.99896C39.8184 6.86639 39.7798 6.67015 40.0008 6.63883" fill="white"/>
    <path d="M0 23.5078C0.156311 23.5109 0.31158 23.5172 0.467891 23.5172C8.78468 23.5172 17.1004 23.5203 25.4172 23.5089C25.7861 23.5089 25.8914 23.583 25.8862 23.9681C25.8622 25.7239 25.8799 27.4807 25.8747 29.2375C25.8684 31.2615 24.6419 32.6602 22.638 32.9045C22.3598 32.9389 22.3462 33.0579 22.3462 33.274C22.3514 35.3951 22.3431 37.5162 22.3566 39.6362C22.3587 39.9274 22.291 40.0099 21.9971 39.9963C21.4386 39.9702 20.8779 39.9765 20.3184 39.9942C20.0724 40.0016 19.9828 39.9473 19.9932 39.6811C20.0151 39.0965 19.9922 38.5099 20.0047 37.9254C20.0089 37.7208 19.9755 37.6341 19.7369 37.6352C15.208 37.6425 10.6792 37.6425 6.14928 37.6362C5.92106 37.6362 5.86583 37.7072 5.87 37.9243C5.88355 38.5224 5.86375 39.1216 5.88042 39.7197C5.88667 39.9483 5.8106 39.9995 5.59594 39.9953C5.01029 39.9817 4.42464 39.9775 3.839 39.9963C3.58369 40.0047 3.51596 39.9316 3.517 39.6748C3.52742 37.5673 3.51387 35.4588 3.53263 33.3512C3.53576 33.0162 3.44614 32.9243 3.11788 32.8899C1.55686 32.727 0.27615 31.4974 0.0687769 30.0036C-0.00729452 29.8784 0.0937866 29.7228 0 29.6007C0 27.5694 0 25.5381 0 23.5078Z" fill="white"/>
    <path d="M0 9.375C0.150059 9.44181 0.308454 9.40736 0.461639 9.40736C8.77843 9.40945 17.0942 9.41153 25.411 9.4011C25.7726 9.4011 25.8882 9.46581 25.8862 9.85725C25.8684 13.5003 25.8705 17.1433 25.8851 20.7863C25.8862 21.1234 25.7903 21.1808 25.4777 21.1788C22.9923 21.1652 20.5059 21.1683 18.0206 21.1756C17.7674 21.1767 17.6506 21.161 17.6288 20.8395C17.5371 19.5358 16.9806 18.4439 15.9833 17.5942C15.8062 17.4428 15.803 17.3625 15.9198 17.1652C16.6982 15.8562 16.6899 14.5305 15.8249 13.2811C14.985 12.0681 13.7616 11.5692 12.3204 11.8322C10.8136 12.1067 9.85177 13.0566 9.49954 14.5556C9.28279 15.4783 9.44848 16.3656 9.96327 17.1704C10.0685 17.3343 10.1071 17.4241 9.92471 17.5775C8.91077 18.4303 8.34388 19.5232 8.25843 20.8489C8.24072 21.1213 8.14693 21.1777 7.88746 21.1767C5.2583 21.1652 2.62915 21.1683 0.00104207 21.1673C0 17.2383 0 13.3061 0 9.375Z" fill="white"/>
    <path d="M40.0011 6.63883C39.8396 6.97912 39.8312 7.35804 39.7301 7.71399C39.1362 9.81315 38.0597 11.6764 36.9113 13.5042C36.0735 14.8372 35.1231 16.0898 34.1061 17.3716C33.4777 16.5292 32.8483 15.7276 32.2658 14.8935C30.8423 12.8559 29.5407 10.7474 28.7123 8.38413C28.1141 6.6785 27.9954 4.9739 28.8342 3.31002C29.7429 1.50835 31.2081 0.427975 33.2016 0.0751566C33.262 0.0647182 33.3349 0.0824635 33.3599 0C33.412 0 33.4642 0 33.5163 0C33.6726 0.0636743 33.8289 0.0636743 33.9852 0C34.1415 0 34.2978 0 34.4541 0C34.6021 0.0845511 34.7636 0.019833 34.9168 0.0407098C36.0933 0.0532359 37.0645 0.583507 37.9419 1.29541C38.859 2.03967 39.4759 3.00209 39.8364 4.13152C39.9438 4.46868 39.9177 4.81837 40.0011 5.15553C40.0011 5.64927 40.0011 6.14405 40.0011 6.63883Z" fill="white"/>
    <path d="M0 5.30958C0.127133 5.22294 0.0906604 5.07367 0.122965 4.95676C0.558551 3.42753 1.89032 2.35759 3.48053 2.35446C9.79237 2.34194 16.1052 2.33776 22.4171 2.35655C24.3157 2.36177 25.808 3.88473 25.8695 5.78348C25.8799 6.10812 25.8643 6.43484 25.8789 6.75947C25.8882 6.96406 25.8497 7.05384 25.611 7.05279C17.0994 7.04549 8.58773 7.04653 0.0760714 7.04549C0.0510616 7.04549 0.0250098 7.034 0 7.02878C0 6.45571 0 5.88265 0 5.30958Z" fill="white"/>
    <path d="M33.9846 0C33.8282 0.107516 33.6719 0.136743 33.5156 0C33.673 0 33.8293 0 33.9846 0Z" fill="white"/>
    <path d="M34.9219 0C34.9157 0.0240084 34.9199 0.0469729 34.9324 0.0678497C34.7667 0.0897703 34.601 0.108559 34.453 0C34.6093 0 34.7656 0 34.9219 0Z" fill="white"/>
    <path d="M0 29.6016C0.104207 29.7216 0.0958708 29.8615 0.0687769 30.0045C0.0458512 29.9982 0.0229256 29.994 0 29.993C0 29.8625 0 29.732 0 29.6016Z" fill="white"/>
    <path d="M12.9234 21.1677C12.2606 21.1677 11.5958 21.1448 10.9351 21.1771C10.5954 21.1938 10.5881 21.0571 10.6235 20.7972C10.7663 19.7471 11.7396 18.865 12.8181 18.8222C13.9873 18.7763 15.0138 19.5571 15.2399 20.6625C15.3431 21.1667 15.3431 21.1667 14.8345 21.1677C14.1968 21.1677 13.5601 21.1677 12.9234 21.1677Z" fill="white"/>
    <path d="M12.9449 14.125C13.5857 14.126 14.112 14.6375 14.1245 15.2743C14.137 15.91 13.5816 16.4726 12.9417 16.4716C12.2936 16.4716 11.7642 15.9267 11.7736 15.2711C11.7829 14.6281 12.2977 14.124 12.9449 14.125Z" fill="white"/>
    <path d="M12.9329 35.2935C10.7081 35.2935 8.48327 35.2872 6.25844 35.3008C5.95624 35.3029 5.85308 35.233 5.86871 34.9177C5.89684 34.3728 5.89268 33.8248 5.86975 33.2789C5.85829 32.996 5.95728 32.9386 6.22093 32.9396C8.73233 32.949 11.2427 32.9448 13.7541 32.9448C15.7184 32.9448 17.6837 32.9522 19.648 32.9375C19.9409 32.9355 20.0222 33.0054 20.0086 33.2987C19.9826 33.8436 19.9836 34.3916 20.0086 34.9365C20.0222 35.2277 19.943 35.3029 19.647 35.3008C17.4086 35.2872 15.1713 35.2935 12.9329 35.2935Z" fill="#FEFEFE"/>
    <path d="M12.9693 27.0443C14.0364 27.0443 15.1045 27.0506 16.1716 27.0391C16.405 27.037 16.4905 27.0903 16.4832 27.3397C16.4644 27.9379 16.4696 28.537 16.4811 29.1352C16.4852 29.3335 16.4321 29.4066 16.2226 29.4055C14.0364 29.3992 11.8491 29.4003 9.66279 29.4045C9.48459 29.4045 9.40539 29.3585 9.40748 29.1644C9.41686 28.5402 9.42103 27.9149 9.40644 27.2907C9.40018 27.0245 9.55129 27.0412 9.72948 27.0423C10.8091 27.0454 11.8897 27.0443 12.9693 27.0443Z" fill="#FEFEFE"/>
    <path d="M7.0515 28.2448C7.0515 28.5569 7.0442 28.869 7.05462 29.1811C7.06088 29.3523 6.99835 29.4045 6.83058 29.4024C6.19387 29.3951 5.55612 29.3961 4.91837 29.4013C4.74956 29.4034 4.69328 29.3418 4.69537 29.1738C4.70266 28.537 4.70266 27.8992 4.69537 27.2625C4.69328 27.0913 4.75581 27.037 4.92254 27.0391C5.55925 27.0454 6.197 27.0464 6.83475 27.0391C7.01086 27.037 7.05775 27.1091 7.05358 27.2698C7.04629 27.5944 7.0515 27.9201 7.0515 28.2448Z" fill="#FEFEFE"/>
    <path d="M19.9311 29.3992C19.6143 29.3627 19.1016 29.5694 18.8838 29.3241C18.6941 29.1101 18.8265 28.6091 18.8223 28.2343C18.8181 27.9097 18.8286 27.585 18.8192 27.2615C18.814 27.0934 18.8713 27.037 19.0422 27.0391C19.6778 27.0475 20.3146 27.0475 20.9502 27.0391C21.119 27.037 21.1763 27.0913 21.1743 27.2604C21.167 27.9097 21.167 28.5579 21.1743 29.2072C21.1763 29.3638 21.1201 29.4076 20.9711 29.4034C20.6459 29.393 20.3218 29.3992 19.9311 29.3992Z" fill="#FEFEFE"/>
    <path d="M32.9492 5.86672C32.9492 5.56818 32.9575 5.2686 32.9461 4.97006C32.9388 4.78008 32.9815 4.69031 33.2003 4.69553C33.811 4.7091 34.4216 4.70597 35.0323 4.69657C35.224 4.69344 35.3116 4.73519 35.3074 4.95231C35.2939 5.56296 35.2959 6.17361 35.3064 6.78425C35.3105 6.98363 35.2574 7.05774 35.0479 7.05357C34.4248 7.04104 33.8006 7.04104 33.1774 7.05357C32.9763 7.05774 32.9409 6.97632 32.9471 6.802C32.9575 6.48989 32.9492 6.17778 32.9492 5.86672Z" fill="#FEFEFE"/>
</svg>